<?xml version="1.0" encoding="UTF-8"?>
<svg xmlns="http://www.w3.org/2000/svg" width="227" height="147" viewBox="0 0 227 147" fill="none">
  <path d="M44.649 144.372C41.7648 95.8196 60.378 62.2418 60.5655 61.9053L61.599 62.5206C61.4115 62.8523 42.9713 96.1465 45.8268 144.348L44.649 144.372Z" fill="#C8D1D6"></path>
  <path d="M44.2597 140.41C42.1109 104.15 47.9948 56.223 48.0525 55.7423L49.2351 55.9346C49.1726 56.4153 43.3031 104.237 45.4471 140.391L44.2597 140.41Z" fill="#C8D1D6"></path>
  <path d="M41.957 139.31C39.8851 120.11 40.2697 106.703 40.9619 98.8385C41.7119 90.277 42.9377 86.34 42.9906 86.1621L44.125 86.5611C44.077 86.7197 39.2025 102.742 43.1396 139.233L41.957 139.31Z" fill="#C8D1D6"></path>
  <path d="M46.3698 129.859L45.1873 129.69C48.3696 98.521 45.3651 83.4458 45.3315 83.2968L46.4948 83.0997C46.5284 83.2488 49.581 98.4778 46.3698 129.859Z" fill="#C8D1D6"></path>
  <path d="M47.817 137.522L46.6296 137.406C47.7929 117.005 43.6155 106.112 43.5723 106.006L44.6731 105.612C44.851 106.059 48.9947 116.827 47.817 137.522Z" fill="#C8D1D6"></path>
  <path d="M48.1822 61.1507C45.1365 55.7298 42.9888 49.8515 41.8223 43.7441C40.0677 34.0192 43.5962 26.3326 48.1533 21.5832C52.7105 16.8337 60.0318 13.4447 64.3966 9.60377C68.7615 5.76287 75.5396 0.330811 75.5396 0.330811C75.5396 0.330811 72.9293 13.8965 72.9822 26.3326C73.0351 38.7687 65.8676 46.0034 60.599 49.8491C55.3304 53.6948 48.1822 61.1507 48.1822 61.1507Z" fill="#00963D"></path>
  <path d="M60.4547 63.3426C60.4547 63.3426 57.4214 49.9259 66.5309 47.5223C75.6404 45.1188 77.9286 49.8634 80.188 50.1903C82.4473 50.5172 85.87 50.8922 88.3601 53.5553C90.8502 56.2185 90.4656 57.9923 92.2299 59.5786C93.9941 61.165 95.6814 62.0447 96.4169 65.2222C97.1524 68.3997 98.3397 71.6926 96.9937 73.6684C96.9937 73.6684 93.2297 63.7464 84.5384 61.8428C75.8471 59.9392 62.2333 62.6312 60.4547 63.3426Z" fill="#00963D"></path>
  <path d="M45.2257 77.4324C45.2257 77.4324 43.8268 65.2222 41.3079 58.8912C38.7889 52.5602 30.862 46.6811 25.5693 44.4218C20.2766 42.1624 16.3781 40.7924 15.1618 38.7686C13.9456 36.7448 11.369 34.471 12.2776 39.6723C13.1861 44.8736 14.2004 53.238 16.8203 56.8578L19.4546 60.4728C19.4546 60.4728 28.9487 60.4728 34.3567 65.9C39.7648 71.3273 45.5814 80.5954 45.5814 80.5954L45.2257 77.4324Z" fill="#00963D"></path>
  <path d="M45.5815 80.5951C45.5815 80.5951 35.4288 69.9713 30.5304 66.3515C25.6319 62.7318 19.2865 62.2847 15.6523 61.8328C12.0181 61.3809 8.15796 55.5018 8.15796 55.5018C8.15796 55.5018 10.9701 69.0676 14.8879 76.3023C18.8058 83.537 28.9681 83.3111 34.3953 83.3111C39.8226 83.3111 45.5815 80.5951 45.5815 80.5951Z" fill="#00963D"></path>
  <path d="M42.2983 88.7386C42.2983 88.7386 42.7791 83.3113 45.5816 80.5953C48.3842 77.8792 53.4124 78.5619 56.638 79.6915C59.8636 80.8212 61.3394 78.5619 63.8487 79.2397C66.358 79.9175 70.098 82.4076 72.4343 84.6669C74.7705 86.9263 77.9913 93.4832 78.0394 94.6177C78.0875 95.7522 72.8813 90.0942 68.9731 88.5126C65.0649 86.9311 57.8062 86.46 52.8308 86.46C47.8554 86.46 42.2983 88.7386 42.2983 88.7386Z" fill="#00963D"></path>
  <path d="M44.7066 103.434C44.7066 103.434 43.3702 98.4779 39.2361 96.8772C35.1019 95.2764 29.2517 95.9734 27.4682 95.9734C25.6848 95.9734 22.4015 93.7092 18.6952 97.1031C16.5 99.0839 14.8162 101.566 13.7871 104.338C16.6584 101.914 20.2786 100.555 24.0359 100.492C30.1362 100.492 32.607 100.04 35.8759 102.53C39.1447 105.02 45.8315 108.861 45.8315 108.861L44.7066 103.434Z" fill="#00963D"></path>
  <path d="M46.5238 120.278C46.5238 120.278 47.4083 108.741 49.3119 105.583C51.2155 102.425 58.008 96.9876 61.3297 94.9542C64.6515 92.9208 69.5403 91.1085 69.5403 91.1085C68.6328 95.5434 67.0488 99.8123 64.8437 103.766C61.2576 110.097 52.3981 114.62 51.3838 117.11C50.795 118.499 50.3254 119.935 49.9801 121.403C49.9801 121.403 49.6436 118.692 55.7102 117.788C61.7768 116.884 67.0406 118.466 69.1702 120.725C71.2997 122.985 74.1119 125.475 74.7897 125.475C75.4675 125.475 79.8853 128.412 79.8853 128.412C79.8853 128.412 76.5491 129.767 71.5161 128.412C66.483 127.056 62.1085 125.047 58.9454 125.047C55.7823 125.047 49.4946 126.177 49.4946 126.177C49.4946 126.177 59.5078 127.758 61.1278 128.662C62.7478 129.566 68.5068 132.282 68.5068 132.282C68.5068 132.282 61.2961 132.733 57.5225 134.541C53.7489 136.348 52.052 139.064 51.8741 140.194C51.6962 141.324 51.5424 143.136 51.5424 143.136L51.677 146.525H36.7749C36.7749 146.525 36.8758 137.935 32.4485 134.315C28.0211 130.695 20.9882 130.469 20.9882 130.469L16.3013 132.051C16.3013 132.051 17.3348 129.561 21.5459 127.527C25.7569 125.494 28.8768 124.364 31.3668 124.364C32.7424 124.344 34.115 124.496 35.4529 124.816C35.4529 124.816 30.9727 120.293 26.2136 120.067C21.4545 119.841 15.1476 121.634 14.489 122.086C13.8304 122.538 26.1751 114.851 30.2564 115.077C32.8051 115.262 35.2587 116.122 37.3662 117.567L35.1597 113.495C35.1597 113.495 37.0825 111.236 41.8128 115.755L46.5238 120.278Z" fill="#00963D"></path>
  <g opacity="0.2">
    <path d="M65.6079 16.2759C67.0501 14.0935 68.0932 12.7042 68.0932 12.7042" stroke="#212527" stroke-miterlimit="10"></path>
    <path d="M49.2349 55.9348C49.2349 55.9348 54.2872 41.6865 57.0128 32.8269C58.455 28.0823 61.5459 22.6502 64.0841 18.6315" stroke="#212527" stroke-miterlimit="10"></path>
    <path d="M61.4449 44.0757C61.4449 44.0757 58.0367 46.6283 53.7535 49.8442C49.4704 53.0602 50.1722 52.0603 50.1722 52.0603L46.2544 45.2438" stroke="#212527" stroke-miterlimit="10"></path>
    <path d="M50.5425 36.0623C51.5664 38.7927 53.2681 44.2344 53.2681 44.2344L64.1707 37.4275" stroke="#212527" stroke-miterlimit="10"></path>
    <path d="M64.4255 28.4666L68.6029 26.0101" stroke="#212527" stroke-miterlimit="10"></path>
    <path d="M54.4602 22.429L57.0128 32.8268L62.3439 29.6925" stroke="#212527" stroke-miterlimit="10"></path>
    <path d="M85.2021 55.733C85.7989 55.9588 86.3531 56.2839 86.8414 56.6945C88.8844 58.401 87.8653 58.5692 90.9323 60.6171C93.9992 62.6649 98.0757 70.2938 96.9748 73.7213" stroke="#212527" stroke-miterlimit="10"></path>
    <path d="M79.1689 51.5748C79.1974 52.1581 79.3677 52.7257 79.6651 53.2283C79.9625 53.7309 80.3779 54.1534 80.8755 54.4591C81.4954 54.8015 82.1707 55.0326 82.8704 55.1417" stroke="#212527" stroke-miterlimit="10"></path>
    <path d="M22.1801 50.4064C20.0986 48.4259 18.8584 47.1376 18.8584 47.1376" stroke="#212527" stroke-miterlimit="10"></path>
    <path d="M38.3081 67.4382C36.3852 64.4433 33.3904 60.2275 29.7466 57.199C27.5834 55.3867 25.6173 53.6321 23.978 52.113" stroke="#212527" stroke-miterlimit="10"></path>
    <path d="M40.4812 71.1734C40.4812 71.1734 40.0822 70.3851 39.3467 69.14" stroke="#212527" stroke-miterlimit="10"></path>
    <path d="M34.0059 61.29L27.3577 49.8683" stroke="#212527" stroke-miterlimit="10"></path>
    <path d="M26.3384 54.6417L20.541 52.9352" stroke="#212527" stroke-miterlimit="10"></path>
    <path d="M28.0981 76.0622C26.9647 75.6524 25.8639 75.1574 24.8052 74.5816C20.7143 72.1781 15.7678 68.7891 14.2295 66.7412" stroke="#212527" stroke-miterlimit="10"></path>
    <path d="M43.2117 80.7156C43.2117 80.7156 36.001 78.8216 30.3286 76.8699" stroke="#212527" stroke-miterlimit="10"></path>
    <path d="M17.1328 74.4135L24.8002 74.5818L21.2237 69.2987" stroke="#212527" stroke-miterlimit="10"></path>
    <path d="M26.5066 78.6728L34.6883 78.1632L30.2562 72.0245" stroke="#212527" stroke-miterlimit="10"></path>
    <path d="M62.1516 82.4126C62.5602 82.6193 63.0554 82.85 63.6611 83.1048C66.9011 84.4652 67.0693 83.2731 70.1363 85.3209C73.2032 87.3688 73.8858 89.407 75.4241 91.1135" stroke="#212527" stroke-miterlimit="10"></path>
    <path d="M60.2529 81.0568C60.2529 81.0568 60.3298 81.3692 61.3874 81.9941" stroke="#212527" stroke-miterlimit="10"></path>
    <path d="M60.2578 100.853C61.1306 99.8863 61.9262 98.8528 62.6373 97.7618" stroke="#212527" stroke-miterlimit="10"></path>
    <path d="M48.1389 114.976C48.1389 114.976 52.9461 107.645 56.8446 104.246C57.2532 103.89 57.6426 103.535 58.008 103.189" stroke="#212527" stroke-miterlimit="10"></path>
  </g>
  <path d="M225.575 146.506H1" stroke="#212527" stroke-linecap="round" stroke-linejoin="round"></path>
  <path d="M209.856 72.5962H154.458C153.834 72.5754 153.222 72.7692 152.723 73.1454C152.224 73.5216 151.87 74.0573 151.718 74.6633L136.59 146.506H197.689L212.591 75.6247C212.928 74.0528 211.61 72.5962 209.856 72.5962Z" fill="#687E88" stroke="#212527" stroke-linecap="round" stroke-linejoin="round"></path>
  <path d="M140.691 23.3998C140.691 23.3998 133.557 28.2069 133.961 31.8267C134.365 35.4465 138.239 38.4413 138.239 38.4413C138.239 38.4413 143.556 25.6063 143.945 25.462C144.335 25.3178 140.691 23.3998 140.691 23.3998Z" fill="#212527" stroke="#212527" stroke-linecap="round" stroke-linejoin="round"></path>
  <path d="M137.417 53.8339C137.417 53.8339 138.648 59.4678 137.768 62.2848L136.888 65.1018C136.888 65.1018 144.984 67.5631 147.628 66.1546C150.271 64.7461 150.618 63.8664 150.618 63.8664C150.618 63.8664 140.407 52.4254 137.417 53.8339Z" fill="#212527" stroke="#212527" stroke-linecap="round" stroke-linejoin="round"></path>
  <path d="M136.062 81.4703C136.062 81.4703 150.031 80.5088 157.016 81.4703C164.001 82.4317 164.842 82.6144 164.842 82.6144C164.842 82.6144 158.694 103.987 154.781 112.371C150.868 120.754 141.931 127.874 141.931 127.874C141.931 127.874 128.096 104.102 136.062 81.4703Z" fill="#212527" stroke="#212527" stroke-linecap="round" stroke-linejoin="round"></path>
  <path d="M142.244 24.5683C142.244 24.5683 137.966 33.9037 137.576 35.9756C137.187 38.0475 137.446 42.071 137.446 43.6286C137.446 45.1861 136.153 50.7575 136.153 52.1853C136.153 53.613 141.595 64.8905 143.023 65.4049C144.45 65.9193 146.263 65.1501 146.263 65.1501C146.263 65.1501 146.912 69.9572 146.782 71.01C146.652 72.0628 143.417 73.4761 143.417 73.4761C143.417 73.4761 139.139 81.903 140.052 84.8834C140.965 87.8638 144.33 90.7193 150.421 89.9405C156.512 89.1618 159.367 87.2149 161.054 82.1626C162.742 77.1103 164.035 72.0676 164.035 72.0676C164.035 72.0676 162.112 72.2983 162.112 70.0919C162.112 67.8854 162.242 57.3866 162.242 57.3866C162.242 57.3866 164.054 39.2396 158.478 31.8463C152.901 24.4529 144.191 21.0831 142.244 24.5683Z" fill="#FFE0C4" stroke="#212527" stroke-linecap="round" stroke-linejoin="round"></path>
  <path d="M139.782 23.1403C139.782 23.1403 150.8 34.4226 154.56 40.9026C158.319 47.3827 154.949 65.6642 156.377 65.6642C157.804 65.6642 162.626 65.5248 173.793 60.2081C184.96 54.8914 184.686 44.5224 181.965 37.004C179.244 29.4857 172.586 20.6598 166.626 17.6986C160.665 14.7374 144.191 13.55 139.782 23.1403Z" fill="#212527" stroke="#212527" stroke-linecap="round" stroke-linejoin="round"></path>
  <path d="M157.602 44.3447C159.669 48.5702 163.712 57.6797 163.015 62.9916" stroke="#A3B2BA" stroke-linecap="round" stroke-linejoin="round"></path>
  <path d="M156.444 42.0707C156.444 42.0707 156.617 42.3928 156.925 42.96" stroke="#A3B2BA" stroke-linecap="round" stroke-linejoin="round"></path>
  <path d="M175.115 53.8099C175.422 55.0603 175.48 56.3586 175.288 57.6316" stroke="#A3B2BA" stroke-linecap="round" stroke-linejoin="round"></path>
  <path d="M144.513 23.5729C144.513 23.5729 142.109 24.9525 159.895 36.7108C169.096 42.7822 172.899 47.9787 174.423 51.6802" stroke="#A3B2BA" stroke-linecap="round" stroke-linejoin="round"></path>
  <path d="M146.911 44.1569C147.576 44.7007 148.384 45.0393 149.238 45.1315C150.091 45.2237 150.953 45.0655 151.719 44.676" stroke="#212527" stroke-linecap="round" stroke-linejoin="round"></path>
  <path d="M138.484 43.8832C138.484 43.8832 139.522 45.1811 141.335 44.013" stroke="#212527" stroke-linecap="round" stroke-linejoin="round"></path>
  <path d="M141.08 39.2202C141.08 39.2202 142.373 42.3304 142.373 43.7582C142.37 44.6204 142.147 45.4676 141.724 46.2194" stroke="#212527" stroke-linecap="round" stroke-linejoin="round"></path>
  <path d="M140.302 52.4397C140.92 52.9455 141.621 53.3407 142.374 53.6078" stroke="#212527" stroke-linecap="round" stroke-linejoin="round"></path>
  <path d="M141.595 55.6942C141.595 55.6942 145.873 57.617 148.858 55.3048" stroke="#212527" stroke-linecap="round" stroke-linejoin="round"></path>
  <path d="M145.359 39.2202C145.359 39.2202 150.8 37.5329 152.877 40.7729" stroke="#212527" stroke-linecap="round" stroke-linejoin="round"></path>
  <path d="M138.225 38.4415C138.225 38.4415 139.523 37.4031 140.302 38.3117" stroke="#212527" stroke-linecap="round" stroke-linejoin="round"></path>
  <path d="M146.262 65.15L152.358 63.8521L146.652 68.9092L146.262 65.15Z" fill="#212527" stroke="#212527" stroke-linecap="round" stroke-linejoin="round"></path>
  <path d="M146.719 71.7262C146.719 71.9164 146.663 72.1022 146.557 72.2603C146.451 72.4184 146.301 72.5417 146.125 72.6144C145.95 72.6872 145.757 72.7063 145.57 72.6692C145.384 72.6321 145.212 72.5405 145.078 72.406C144.943 72.2716 144.852 72.1003 144.815 71.9138C144.778 71.7273 144.797 71.5339 144.869 71.3583C144.942 71.1826 145.065 71.0324 145.223 70.9268C145.382 70.8212 145.567 70.7648 145.758 70.7648C146.013 70.7648 146.257 70.8661 146.437 71.0464C146.618 71.2267 146.719 71.4712 146.719 71.7262Z" fill="white" stroke="#212527" stroke-linecap="round" stroke-linejoin="round"></path>
  <path d="M146.459 73.3461C146.459 73.5362 146.403 73.7221 146.297 73.8802C146.192 74.0383 146.042 74.1615 145.866 74.2343C145.69 74.3071 145.497 74.3261 145.31 74.289C145.124 74.2519 144.953 74.1604 144.818 74.0259C144.684 73.8914 144.592 73.7201 144.555 73.5336C144.518 73.3471 144.537 73.1538 144.61 72.9781C144.683 72.8025 144.806 72.6523 144.964 72.5467C145.122 72.441 145.308 72.3846 145.498 72.3846C145.753 72.3846 145.998 72.4859 146.178 72.6662C146.358 72.8465 146.459 73.0911 146.459 73.3461Z" fill="white" stroke="#212527" stroke-linecap="round" stroke-linejoin="round"></path>
  <path d="M146.205 74.9658C146.205 75.156 146.148 75.3419 146.043 75.5C145.937 75.6581 145.787 75.7813 145.611 75.8541C145.435 75.9268 145.242 75.9459 145.056 75.9088C144.869 75.8717 144.698 75.7801 144.563 75.6457C144.429 75.5112 144.337 75.3399 144.3 75.1534C144.263 74.9669 144.282 74.7736 144.355 74.5979C144.428 74.4222 144.551 74.2721 144.709 74.1664C144.867 74.0608 145.053 74.0044 145.243 74.0044C145.498 74.0044 145.743 74.1057 145.923 74.286C146.103 74.4663 146.205 74.7108 146.205 74.9658Z" fill="white" stroke="#212527" stroke-linecap="round" stroke-linejoin="round"></path>
  <path d="M163.948 71.0773C163.948 71.2674 163.892 71.4533 163.786 71.6114C163.68 71.7695 163.53 71.8927 163.354 71.9655C163.179 72.0383 162.986 72.0573 162.799 72.0202C162.613 71.9831 162.441 71.8916 162.307 71.7571C162.172 71.6226 162.081 71.4513 162.044 71.2648C162.007 71.0783 162.026 70.885 162.098 70.7093C162.171 70.5337 162.294 70.3835 162.452 70.2779C162.611 70.1722 162.796 70.1158 162.987 70.1158C163.242 70.1158 163.486 70.2171 163.666 70.3974C163.847 70.5777 163.948 70.8223 163.948 71.0773Z" fill="white" stroke="#212527" stroke-linecap="round" stroke-linejoin="round"></path>
  <path d="M163.03 72.0385C163.03 72.2286 162.973 72.4145 162.868 72.5726C162.762 72.7307 162.612 72.8539 162.436 72.9267C162.26 72.9995 162.067 73.0185 161.881 72.9814C161.694 72.9443 161.523 72.8527 161.388 72.7183C161.254 72.5838 161.162 72.4125 161.125 72.226C161.088 72.0395 161.107 71.8462 161.18 71.6705C161.253 71.4948 161.376 71.3447 161.534 71.2391C161.692 71.1334 161.878 71.077 162.068 71.077C162.323 71.077 162.568 71.1783 162.748 71.3586C162.928 71.5389 163.03 71.7835 163.03 72.0385Z" fill="white" stroke="#212527" stroke-linecap="round" stroke-linejoin="round"></path>
  <path d="M161.02 74.0766C161.557 74.0766 161.991 73.6418 161.991 73.1056C161.991 72.5693 161.557 72.1345 161.02 72.1345C160.484 72.1345 160.049 72.5693 160.049 73.1056C160.049 73.6418 160.484 74.0766 161.02 74.0766Z" fill="white" stroke="#212527" stroke-linecap="round" stroke-linejoin="round"></path>
  <path d="M160.838 74.1534C160.838 74.3436 160.781 74.5295 160.676 74.6876C160.57 74.8457 160.42 74.9689 160.244 75.0417C160.068 75.1145 159.875 75.1335 159.689 75.0964C159.502 75.0593 159.331 74.9677 159.196 74.8333C159.062 74.6988 158.97 74.5275 158.933 74.341C158.896 74.1545 158.915 73.9612 158.988 73.7855C159.061 73.6099 159.184 73.4597 159.342 73.354C159.5 73.2484 159.686 73.192 159.876 73.192C160.131 73.192 160.376 73.2933 160.556 73.4736C160.736 73.6539 160.838 73.8985 160.838 74.1534Z" fill="white" stroke="#212527" stroke-linecap="round" stroke-linejoin="round"></path>
  <path d="M159.621 75.1489C159.621 75.3391 159.565 75.525 159.459 75.6831C159.354 75.8412 159.204 75.9644 159.028 76.0372C158.852 76.1099 158.659 76.129 158.472 76.0919C158.286 76.0548 158.115 75.9632 157.98 75.8288C157.846 75.6943 157.754 75.523 157.717 75.3365C157.68 75.15 157.699 74.9567 157.772 74.781C157.844 74.6053 157.968 74.4552 158.126 74.3495C158.284 74.2439 158.47 74.1875 158.66 74.1875C158.915 74.1875 159.159 74.2888 159.34 74.4691C159.52 74.6494 159.621 74.8939 159.621 75.1489Z" fill="white" stroke="#212527" stroke-linecap="round" stroke-linejoin="round"></path>
  <path d="M157.218 77.2783C157.754 77.2783 158.189 76.8435 158.189 76.3072C158.189 75.7709 157.754 75.3362 157.218 75.3362C156.682 75.3362 156.247 75.7709 156.247 76.3072C156.247 76.8435 156.682 77.2783 157.218 77.2783Z" fill="white" stroke="#212527" stroke-linecap="round" stroke-linejoin="round"></path>
  <path d="M157.03 77.2111C157.03 77.4012 156.974 77.5871 156.868 77.7452C156.763 77.9033 156.612 78.0265 156.437 78.0993C156.261 78.1721 156.068 78.1911 155.881 78.154C155.695 78.1169 155.523 78.0254 155.389 77.8909C155.255 77.7564 155.163 77.5851 155.126 77.3986C155.089 77.2121 155.108 77.0188 155.181 76.8431C155.253 76.6675 155.377 76.5173 155.535 76.4117C155.693 76.306 155.879 76.2496 156.069 76.2496C156.324 76.2496 156.568 76.3509 156.749 76.5312C156.929 76.7115 157.03 76.9561 157.03 77.2111Z" fill="white" stroke="#212527" stroke-linecap="round" stroke-linejoin="round"></path>
  <path d="M155.651 78.5138C155.651 78.7039 155.594 78.8898 155.489 79.0479C155.383 79.206 155.233 79.3293 155.057 79.402C154.881 79.4748 154.688 79.4938 154.502 79.4568C154.315 79.4197 154.144 79.3281 154.009 79.1936C153.875 79.0592 153.783 78.8879 153.746 78.7014C153.709 78.5149 153.728 78.3215 153.801 78.1459C153.874 77.9702 153.997 77.82 154.155 77.7144C154.313 77.6088 154.499 77.5524 154.689 77.5524C154.944 77.5524 155.189 77.6537 155.369 77.834C155.549 78.0143 155.651 78.2588 155.651 78.5138Z" fill="white" stroke="#212527" stroke-linecap="round" stroke-linejoin="round"></path>
  <path d="M154.237 79.3406C154.237 79.5307 154.181 79.7166 154.075 79.8747C153.97 80.0328 153.819 80.156 153.644 80.2288C153.468 80.3016 153.275 80.3206 153.088 80.2835C152.902 80.2464 152.73 80.1549 152.596 80.0204C152.462 79.886 152.37 79.7146 152.333 79.5281C152.296 79.3416 152.315 79.1483 152.388 78.9726C152.46 78.797 152.584 78.6468 152.742 78.5412C152.9 78.4355 153.086 78.3792 153.276 78.3792C153.531 78.3792 153.775 78.4804 153.956 78.6607C154.136 78.841 154.237 79.0856 154.237 79.3406Z" fill="white" stroke="#212527" stroke-linecap="round" stroke-linejoin="round"></path>
  <path d="M152.694 80.2106C152.694 80.4007 152.638 80.5866 152.532 80.7447C152.426 80.9028 152.276 81.026 152.101 81.0988C151.925 81.1716 151.732 81.1906 151.545 81.1535C151.359 81.1164 151.187 81.0249 151.053 80.8904C150.918 80.7559 150.827 80.5846 150.79 80.3981C150.753 80.2116 150.772 80.0183 150.844 79.8426C150.917 79.667 151.04 79.5168 151.199 79.4112C151.357 79.3055 151.543 79.2491 151.733 79.2491C151.988 79.2491 152.232 79.3504 152.413 79.5307C152.593 79.711 152.694 79.9556 152.694 80.2106Z" fill="white" stroke="#212527" stroke-linecap="round" stroke-linejoin="round"></path>
  <path d="M146.055 76.8458C146.055 77.036 145.999 77.2219 145.893 77.38C145.788 77.5381 145.638 77.6613 145.462 77.7341C145.286 77.8068 145.093 77.8259 144.906 77.7888C144.72 77.7517 144.549 77.6601 144.414 77.5257C144.28 77.3912 144.188 77.2199 144.151 77.0334C144.114 76.8469 144.133 76.6536 144.206 76.4779C144.279 76.3022 144.402 76.1521 144.56 76.0464C144.718 75.9408 144.904 75.8844 145.094 75.8844C145.349 75.8844 145.594 75.9857 145.774 76.166C145.954 76.3463 146.055 76.5908 146.055 76.8458Z" fill="white" stroke="#212527" stroke-linecap="round" stroke-linejoin="round"></path>
  <path d="M145.248 79.4272C145.784 79.4272 146.219 78.9924 146.219 78.4562C146.219 77.9199 145.784 77.4851 145.248 77.4851C144.712 77.4851 144.277 77.9199 144.277 78.4562C144.277 78.9924 144.712 79.4272 145.248 79.4272Z" fill="white" stroke="#212527" stroke-linecap="round" stroke-linejoin="round"></path>
  <path d="M146.58 79.9943C146.58 80.1844 146.523 80.3703 146.418 80.5284C146.312 80.6865 146.162 80.8097 145.986 80.8825C145.811 80.9553 145.617 80.9743 145.431 80.9372C145.244 80.9001 145.073 80.8086 144.939 80.6741C144.804 80.5396 144.713 80.3683 144.675 80.1818C144.638 79.9953 144.657 79.802 144.73 79.6263C144.803 79.4507 144.926 79.3005 145.084 79.1949C145.242 79.0892 145.428 79.0328 145.618 79.0328C145.873 79.0328 146.118 79.1341 146.298 79.3144C146.479 79.4947 146.58 79.7393 146.58 79.9943Z" fill="white" stroke="#212527" stroke-linecap="round" stroke-linejoin="round"></path>
  <path d="M146.849 81.9654C147.385 81.9654 147.82 81.5307 147.82 80.9944C147.82 80.4581 147.385 80.0233 146.849 80.0233C146.313 80.0233 145.878 80.4581 145.878 80.9944C145.878 81.5307 146.313 81.9654 146.849 81.9654Z" fill="white" stroke="#212527" stroke-linecap="round" stroke-linejoin="round"></path>
  <path d="M151.074 80.8308C151.074 81.021 151.018 81.2068 150.912 81.365C150.807 81.5231 150.656 81.6463 150.481 81.719C150.305 81.7918 150.112 81.8109 149.925 81.7738C149.739 81.7367 149.567 81.6451 149.433 81.5106C149.299 81.3762 149.207 81.2049 149.17 81.0184C149.133 80.8319 149.152 80.6386 149.225 80.4629C149.297 80.2872 149.421 80.1371 149.579 80.0314C149.737 79.9258 149.923 79.8694 150.113 79.8694C150.368 79.8694 150.612 79.9707 150.793 80.151C150.973 80.3313 151.074 80.5758 151.074 80.8308Z" fill="white" stroke="#212527" stroke-linecap="round" stroke-linejoin="round"></path>
  <path d="M149.57 81.3258C149.57 81.516 149.513 81.7018 149.408 81.8599C149.302 82.0181 149.152 82.1413 148.976 82.214C148.8 82.2868 148.607 82.3059 148.421 82.2688C148.234 82.2317 148.063 82.1401 147.928 82.0056C147.794 81.8712 147.702 81.6999 147.665 81.5134C147.628 81.3269 147.647 81.1336 147.72 80.9579C147.793 80.7822 147.916 80.6321 148.074 80.5264C148.232 80.4208 148.418 80.3644 148.608 80.3644C148.863 80.3644 149.108 80.4657 149.288 80.646C149.468 80.8263 149.57 81.0708 149.57 81.3258Z" fill="white" stroke="#212527" stroke-linecap="round" stroke-linejoin="round"></path>
  <path d="M163.948 71.077C163.948 71.077 159.525 85.7196 156.934 92.4255C154.343 99.1315 147.488 113.909 147.488 113.909C147.488 113.909 141.09 105.073 140.023 94.2522C138.956 83.4314 143.412 73.4854 143.412 73.4854C143.412 73.4854 131.654 77.5282 128.76 78.5954C125.866 79.6626 122.573 81.196 121.357 84.0899C120.14 86.9838 106.541 125.378 105.931 126.902C105.32 128.426 104.104 128.58 105.782 131.171C107.459 133.762 115.53 133.911 117.054 132.541C118.578 131.171 127.375 118.187 127.375 118.187L130.577 124.436L131.947 143.328L131.644 146.53H172.644L172.163 135.406C172.163 135.406 187.411 97.0163 188.632 90.4642C189.854 83.9121 188.022 80.4077 185.267 78.4464C182.513 76.485 163.948 71.077 163.948 71.077Z" fill="#F9A825" stroke="#212527" stroke-linecap="round" stroke-linejoin="round"></path>
  <path d="M137.955 82.6622C137.612 82.5674 137.245 82.6077 136.93 82.7749C136.616 82.9421 136.377 83.2234 136.263 83.5611C135.816 84.8014 135.475 85.931 135.475 85.931C135.475 85.931 133.898 88.1904 133.552 89.296C133.206 90.4017 132.312 99.4487 132.086 100.242C131.86 101.035 131.072 105.092 131.072 105.092L129.831 107.015L133.1 112.654C133.1 112.654 134.908 112.543 136.6 109.947C138.292 107.352 138.292 107.578 138.628 104.309C138.965 101.04 139.306 83.2102 139.306 83.2102C139.306 83.2102 138.633 82.4363 137.955 82.6622Z" fill="#FFE0C4" stroke="#212527" stroke-linecap="round" stroke-linejoin="round"></path>
  <path d="M144.614 110.976C144.614 110.976 144.277 108.606 144.84 107.818C145.402 107.03 146.532 106.914 146.762 104.323C146.993 101.732 146.2 99.242 146.652 96.4251C147.104 93.6081 148.344 94.1657 148.229 92.9255C148.113 91.6852 146.306 91.4593 145.748 92.363C145.19 93.2668 144.618 94.3916 144.618 94.3916C144.618 94.3916 144.167 87.1809 143.941 84.8014C143.715 82.4219 142.138 81.7585 142.138 81.7585C142.138 81.7585 141.46 79.8356 140.556 80.2923C139.653 80.749 139.542 81.3066 139.542 81.3066C138.912 81.6229 138.369 82.0883 137.961 82.6622C137.68 83.2995 137.564 83.9971 137.624 84.6908C136.956 85.3094 136.452 86.0841 136.158 86.9454C135.821 88.1904 134.466 96.1991 134.35 99.3574C134.235 102.516 134.35 108.044 134.918 109.058C135.485 110.073 136.946 112.216 136.946 112.216L137.85 114.928C137.85 114.928 142.133 111.428 144.614 110.976Z" fill="#FFE0C4" stroke="#212527" stroke-linecap="round" stroke-linejoin="round"></path>
  <path d="M137.619 84.6909C137.619 84.6909 138.297 85.0274 138.182 86.6138C138.066 88.2001 137.283 95.4156 137.283 95.4156" fill="#FFE0C4"></path>
  <path d="M137.619 84.6909C137.619 84.6909 138.297 85.0274 138.182 86.6138C138.066 88.2001 137.283 95.4156 137.283 95.4156" stroke="#212527" stroke-linecap="round" stroke-linejoin="round"></path>
  <path d="M139.537 81.3064C139.537 81.3064 140.436 80.7776 140.21 82.7486C139.984 84.7195 139.989 94.5212 139.989 94.5212" fill="#FFE0C4"></path>
  <path d="M139.537 81.3064C139.537 81.3064 140.436 80.7776 140.21 82.7486C139.984 84.7195 139.989 94.5212 139.989 94.5212" stroke="#212527" stroke-linecap="round" stroke-linejoin="round"></path>
  <path d="M142.133 81.7584C142.133 81.7584 142.585 90.892 142.359 93.4926L142.133 81.7584Z" fill="white"></path>
  <path d="M142.133 81.7584C142.133 81.7584 142.585 90.892 142.359 93.4926" stroke="#212527" stroke-linecap="round" stroke-linejoin="round"></path>
  <path d="M144.613 94.3917C144.613 94.3917 145.161 97.7087 145.382 98.497L144.613 94.3917Z" fill="white"></path>
  <path d="M144.613 94.3917C144.613 94.3917 145.161 97.7087 145.382 98.497" stroke="#212527" stroke-linecap="round" stroke-linejoin="round"></path>
  <path d="M130.125 105.583L134.999 112.173C134.999 112.173 124.51 128.143 122.871 130.748C121.232 133.353 115.925 139.449 112.935 140.218C109.945 140.987 108.305 140.218 106.685 137.906C105.065 135.594 102.633 131.657 103.695 129.027C104.758 126.398 112.762 118.879 115.271 117.528C117.78 116.178 130.125 105.583 130.125 105.583Z" fill="#F9A825" stroke="#212527" stroke-linecap="round" stroke-linejoin="round"></path>
  <path d="M181.95 78.0668C181.95 78.0668 184.354 78.259 185.287 78.4033C186.219 78.5475 187.935 80.8645 188.608 82.3115C189.281 83.7584 189.286 89.2578 188.993 92.344C188.7 95.4301 182.349 118.509 180.999 125.648C179.648 132.786 175.009 143.434 174.144 144.679C173.278 145.924 171.634 147.083 169.995 146.991C168.356 146.9 158.184 139.814 154.42 136.151C150.656 132.488 136.278 113.558 136.278 113.558C136.278 113.558 138.114 110.674 139.753 109.712C141.393 108.751 144.868 108.169 144.868 108.169C144.868 108.169 151.233 113.668 156.155 117.706C159.224 120.218 162.487 122.481 165.914 124.475C165.914 124.475 168.039 112.178 168.317 110.731C168.596 109.284 170.889 96.8434 170.889 96.8434" fill="#F9A825"></path>
  <path d="M181.95 78.0668C181.95 78.0668 184.354 78.259 185.287 78.4033C186.219 78.5475 187.935 80.8645 188.608 82.3115C189.281 83.7584 189.286 89.2578 188.993 92.344C188.7 95.4301 182.349 118.509 180.999 125.648C179.648 132.786 175.009 143.434 174.144 144.679C173.278 145.924 171.634 147.083 169.995 146.991C168.356 146.9 158.184 139.814 154.42 136.151C150.656 132.488 136.278 113.558 136.278 113.558C136.278 113.558 138.114 110.674 139.753 109.712C141.393 108.751 144.868 108.169 144.868 108.169C144.868 108.169 151.233 113.668 156.155 117.706C159.224 120.218 162.487 122.481 165.914 124.475C165.914 124.475 168.039 112.178 168.317 110.731C168.596 109.284 170.889 96.8434 170.889 96.8434" stroke="#212527" stroke-linecap="round" stroke-linejoin="round"></path>
  <path d="M165.914 124.475C165.914 124.475 169.389 125.826 170.24 130.94" stroke="#212527" stroke-linecap="round" stroke-linejoin="round"></path>
  <path d="M166.092 125.729C166.092 125.729 168.12 127.171 167.64 130.359" stroke="#212527" stroke-linecap="round" stroke-linejoin="round"></path>
  <path d="M124.991 109.424C124.498 107.109 124.664 104.702 125.472 102.477C126.822 98.8094 129.798 88.5798 129.798 88.5798" stroke="#212527" stroke-linecap="round" stroke-linejoin="round"></path>
  <path d="M109.228 156L138.638 148.592C139.095 148.481 139.268 147.083 138.802 147.083L95.4172 147.813L109.228 156Z" fill="white" stroke="#212527" stroke-linecap="round" stroke-linejoin="round"></path>
  <path d="M109.228 155.255L138.638 147.847C138.734 147.826 138.818 147.769 138.874 147.689C138.931 147.609 138.955 147.511 138.943 147.414C138.931 147.317 138.884 147.228 138.81 147.164C138.735 147.1 138.64 147.066 138.542 147.068H95.4172L109.228 155.255Z" fill="white" stroke="#212527" stroke-linecap="round" stroke-linejoin="round"></path>
  <path d="M109.228 156H42.409L34.7176 116.327C34.6525 115.989 34.6626 115.642 34.7475 115.309C34.8323 114.976 34.9896 114.666 35.2083 114.401C35.4269 114.136 35.7014 113.922 36.0122 113.776C36.3229 113.629 36.6622 113.553 37.0058 113.553H99.0948C99.6356 113.553 100.159 113.742 100.576 114.087C100.993 114.432 101.276 114.911 101.378 115.442L109.228 156Z" fill="white" stroke="#212527" stroke-linecap="round" stroke-linejoin="round"></path>
  <path d="M108.18 156H41.409L33.7176 116.327C33.6525 115.99 33.6626 115.642 33.7472 115.31C33.8317 114.977 33.9886 114.667 34.2068 114.403C34.4249 114.138 34.6988 113.924 35.0089 113.777C35.3191 113.63 35.6578 113.554 36.001 113.553H98.0323C98.5737 113.553 99.0982 113.742 99.5157 114.086C99.9333 114.431 100.218 114.91 100.32 115.442L108.18 156Z" fill="#C8D1D6" stroke="#212527" stroke-linecap="round" stroke-linejoin="round"></path>
  <path d="M68.3964 140.093C71.0885 140.093 73.2708 137.911 73.2708 135.219C73.2708 132.527 71.0885 130.344 68.3964 130.344C65.7043 130.344 63.522 132.527 63.522 135.219C63.522 137.911 65.7043 140.093 68.3964 140.093Z" fill="#687E88"></path>
  <path d="M203.371 134.964C203.371 134.964 205.952 133.603 207.217 134.579C208.481 135.555 209.375 138.175 209.375 140.545C209.375 142.915 208.414 145.285 206.726 146.405C205.039 147.525 201.982 146.684 201.982 146.684L202.121 144.309C202.121 144.309 204.496 145.27 205.89 143.472C207.284 141.675 206.448 138.185 205.611 137.339C204.775 136.492 202.823 138.454 202.823 138.454L203.371 134.964Z" fill="#FF5252" stroke="#212527" stroke-linecap="round" stroke-linejoin="round"></path>
  <path d="M204.587 130.94H186.479L188.291 153.322H202.78L204.587 130.94Z" fill="#FF5252" stroke="#212527" stroke-linecap="round" stroke-linejoin="round"></path>
  <path d="M190.858 115.26C190.858 118.764 188.935 118.764 188.935 122.268C188.935 125.773 190.858 125.778 190.858 129.282" stroke="#212527" stroke-linecap="round" stroke-linejoin="round"></path>
  <path d="M194.569 119.417C194.136 120.304 193.924 121.282 193.954 122.268C193.954 125.777 195.876 125.777 195.876 129.282" stroke="#212527" stroke-linecap="round" stroke-linejoin="round"></path>
  <path d="M195.876 115.26C195.899 116.103 195.749 116.943 195.434 117.726" stroke="#212527" stroke-linecap="round" stroke-linejoin="round"></path>
  <path d="M199.438 124.792C200.011 126.138 200.881 126.898 200.881 129.282" stroke="#212527" stroke-linecap="round" stroke-linejoin="round"></path>
  <path d="M200.9 115.26C200.9 118.764 198.977 118.764 198.977 122.268" stroke="#212527" stroke-linecap="round" stroke-linejoin="round"></path>
</svg>
